<mxfile host="app.diagrams.net" agent="Mozilla/5.0 (Windows NT 10.0; Win64; x64) AppleWebKit/537.36 (KHTML, like Gecko) Chrome/127.0.0.0 Safari/537.36" version="24.7.6">
  <diagram name="Página-1" id="orvOSKXcJAp2FpDE_vBc">
    <mxGraphModel dx="791" dy="812" grid="1" gridSize="10" guides="1" tooltips="1" connect="1" arrows="1" fold="1" page="1" pageScale="1" pageWidth="827" pageHeight="1169" math="0" shadow="0">
      <root>
        <mxCell id="0" />
        <mxCell id="1" parent="0" />
        <mxCell id="f2zpVBiBIq3uo5MfMtim-34" value="" style="rounded=1;whiteSpace=wrap;html=1;" vertex="1" parent="1">
          <mxGeometry x="550" y="100" width="120" height="60" as="geometry" />
        </mxCell>
        <mxCell id="f2zpVBiBIq3uo5MfMtim-1" value="" style="whiteSpace=wrap;html=1;aspect=fixed;" vertex="1" parent="1">
          <mxGeometry x="100" y="87" width="590" height="590" as="geometry" />
        </mxCell>
        <mxCell id="3D6g0djBrwMSLBs7K4ZN-1" value="" style="rounded=1;whiteSpace=wrap;html=1;" parent="1" vertex="1">
          <mxGeometry x="220" y="203" width="350" height="400" as="geometry" />
        </mxCell>
        <mxCell id="3D6g0djBrwMSLBs7K4ZN-2" value="" style="ellipse;whiteSpace=wrap;html=1;aspect=fixed;" parent="1" vertex="1">
          <mxGeometry x="330" y="241" width="130" height="130" as="geometry" />
        </mxCell>
        <mxCell id="3D6g0djBrwMSLBs7K4ZN-3" value="" style="shape=umlDestroy;whiteSpace=wrap;html=1;strokeWidth=3;targetShapes=umlLifeline;" parent="1" vertex="1">
          <mxGeometry x="352.5" y="254" width="85" height="100" as="geometry" />
        </mxCell>
        <mxCell id="3D6g0djBrwMSLBs7K4ZN-4" value="Configurações&amp;nbsp;" style="text;html=1;align=center;verticalAlign=middle;whiteSpace=wrap;rounded=0;perimeterSpacing=16;fontSize=17;" parent="1" vertex="1">
          <mxGeometry x="250" y="415" width="120" height="40" as="geometry" />
        </mxCell>
        <mxCell id="3D6g0djBrwMSLBs7K4ZN-5" value="&lt;font style=&quot;vertical-align: inherit;&quot;&gt;&lt;font style=&quot;vertical-align: inherit;&quot;&gt;-------&lt;/font&gt;&lt;/font&gt;" style="text;html=1;align=center;verticalAlign=middle;whiteSpace=wrap;rounded=0;fontSize=30;" parent="1" vertex="1">
          <mxGeometry x="307.5" y="375" width="175" height="30" as="geometry" />
        </mxCell>
        <mxCell id="3D6g0djBrwMSLBs7K4ZN-7" value="Meus Pedidos" style="text;html=1;align=center;verticalAlign=middle;whiteSpace=wrap;rounded=0;perimeterSpacing=16;fontSize=17;" parent="1" vertex="1">
          <mxGeometry x="250" y="445" width="120" height="40" as="geometry" />
        </mxCell>
        <mxCell id="3D6g0djBrwMSLBs7K4ZN-8" value="Feedback" style="text;html=1;align=center;verticalAlign=middle;whiteSpace=wrap;rounded=0;perimeterSpacing=16;fontSize=17;" parent="1" vertex="1">
          <mxGeometry x="232.5" y="472" width="120" height="40" as="geometry" />
        </mxCell>
        <mxCell id="3D6g0djBrwMSLBs7K4ZN-9" value="Contato" style="text;html=1;align=center;verticalAlign=middle;whiteSpace=wrap;rounded=0;perimeterSpacing=16;fontSize=17;" parent="1" vertex="1">
          <mxGeometry x="220" y="504" width="130" height="40" as="geometry" />
        </mxCell>
        <mxCell id="f2zpVBiBIq3uo5MfMtim-14" value="" style="endArrow=none;html=1;rounded=0;endSize=0;" edge="1" parent="1">
          <mxGeometry width="50" height="50" relative="1" as="geometry">
            <mxPoint x="220" y="446.0000000000001" as="sourcePoint" />
            <mxPoint x="576" y="446" as="targetPoint" />
          </mxGeometry>
        </mxCell>
        <mxCell id="f2zpVBiBIq3uo5MfMtim-15" value="" style="endArrow=none;html=1;rounded=0;endSize=0;" edge="1" parent="1">
          <mxGeometry width="50" height="50" relative="1" as="geometry">
            <mxPoint x="220" y="477.0000000000001" as="sourcePoint" />
            <mxPoint x="576" y="477" as="targetPoint" />
          </mxGeometry>
        </mxCell>
        <mxCell id="f2zpVBiBIq3uo5MfMtim-16" value="" style="endArrow=none;html=1;rounded=0;endSize=0;" edge="1" parent="1">
          <mxGeometry width="50" height="50" relative="1" as="geometry">
            <mxPoint x="219" y="503.0000000000001" as="sourcePoint" />
            <mxPoint x="575" y="503" as="targetPoint" />
          </mxGeometry>
        </mxCell>
        <mxCell id="f2zpVBiBIq3uo5MfMtim-17" value="" style="endArrow=none;html=1;rounded=0;endSize=0;" edge="1" parent="1">
          <mxGeometry width="50" height="50" relative="1" as="geometry">
            <mxPoint x="217" y="534.0000000000001" as="sourcePoint" />
            <mxPoint x="573" y="534" as="targetPoint" />
          </mxGeometry>
        </mxCell>
        <mxCell id="f2zpVBiBIq3uo5MfMtim-18" value="" style="endArrow=none;html=1;rounded=0;endSize=0;entryX=1;entryY=0.09;entryDx=0;entryDy=0;entryPerimeter=0;exitX=0.007;exitY=0.085;exitDx=0;exitDy=0;exitPerimeter=0;" edge="1" parent="1">
          <mxGeometry width="50" height="50" relative="1" as="geometry">
            <mxPoint x="104.13" y="176.1500000000001" as="sourcePoint" />
            <mxPoint x="690" y="179.10000000000002" as="targetPoint" />
          </mxGeometry>
        </mxCell>
        <mxCell id="f2zpVBiBIq3uo5MfMtim-20" value="" style="ellipse;whiteSpace=wrap;html=1;aspect=fixed;" vertex="1" parent="1">
          <mxGeometry x="107" y="91" width="80" height="80" as="geometry" />
        </mxCell>
        <mxCell id="f2zpVBiBIq3uo5MfMtim-21" value="" style="shape=umlDestroy;whiteSpace=wrap;html=1;strokeWidth=3;targetShapes=umlLifeline;" vertex="1" parent="1">
          <mxGeometry x="126.25" y="100" width="43.75" height="60" as="geometry" />
        </mxCell>
        <mxCell id="f2zpVBiBIq3uo5MfMtim-22" value="" style="shape=ext;double=1;rounded=1;whiteSpace=wrap;html=1;" vertex="1" parent="1">
          <mxGeometry x="232.5" y="116" width="247.5" height="30" as="geometry" />
        </mxCell>
        <mxCell id="f2zpVBiBIq3uo5MfMtim-25" value="Pesquisar" style="text;html=1;align=center;verticalAlign=middle;whiteSpace=wrap;rounded=0;" vertex="1" parent="1">
          <mxGeometry x="232.5" y="116" width="147.5" height="30" as="geometry" />
        </mxCell>
        <mxCell id="f2zpVBiBIq3uo5MfMtim-26" value="" style="ellipse;whiteSpace=wrap;html=1;aspect=fixed;" vertex="1" parent="1">
          <mxGeometry x="500" y="115.25" width="31.5" height="31.5" as="geometry" />
        </mxCell>
        <mxCell id="f2zpVBiBIq3uo5MfMtim-28" value="" style="ellipse;whiteSpace=wrap;html=1;aspect=fixed;" vertex="1" parent="1">
          <mxGeometry x="538.5" y="116" width="31.5" height="31.5" as="geometry" />
        </mxCell>
        <mxCell id="f2zpVBiBIq3uo5MfMtim-37" value="" style="ellipse;whiteSpace=wrap;html=1;aspect=fixed;" vertex="1" parent="1">
          <mxGeometry x="580" y="116" width="31.5" height="31.5" as="geometry" />
        </mxCell>
      </root>
    </mxGraphModel>
  </diagram>
</mxfile>
